<mxfile host="app.diagrams.net" modified="2022-04-17T03:08:23.783Z" agent="5.0 (Macintosh; Intel Mac OS X 10_15_7) AppleWebKit/537.36 (KHTML, like Gecko) Chrome/100.0.4896.75 Safari/537.36" etag="J1eRdNExgkVK0VKUrBFY" version="17.4.3" type="github">
  <diagram id="LcumRcBRr6USi84tn0P9" name="Page-1">
    <mxGraphModel dx="1042" dy="564" grid="1" gridSize="10" guides="1" tooltips="1" connect="1" arrows="1" fold="1" page="1" pageScale="1" pageWidth="827" pageHeight="1169" math="0" shadow="0">
      <root>
        <mxCell id="0" />
        <mxCell id="1" parent="0" />
        <mxCell id="bTGz799TzCsgq-tL2QBZ-2" value="AWS Cloud" style="points=[[0,0],[0.25,0],[0.5,0],[0.75,0],[1,0],[1,0.25],[1,0.5],[1,0.75],[1,1],[0.75,1],[0.5,1],[0.25,1],[0,1],[0,0.75],[0,0.5],[0,0.25]];outlineConnect=0;gradientColor=none;html=1;whiteSpace=wrap;fontSize=12;fontStyle=0;container=1;pointerEvents=0;collapsible=0;recursiveResize=0;shape=mxgraph.aws4.group;grIcon=mxgraph.aws4.group_vpc;strokeColor=#248814;fillColor=none;verticalAlign=top;align=left;spacingLeft=30;fontColor=#AAB7B8;dashed=0;" parent="1" vertex="1">
          <mxGeometry x="30" y="20" width="790" height="730" as="geometry" />
        </mxCell>
        <mxCell id="V1oselqunodWBxak1BEi-10" value="" style="rounded=0;whiteSpace=wrap;html=1;" vertex="1" parent="bTGz799TzCsgq-tL2QBZ-2">
          <mxGeometry x="565" y="395" width="150" height="145" as="geometry" />
        </mxCell>
        <mxCell id="POhj-LKM1kwhmbA6X7bR-6" value="" style="edgeStyle=orthogonalEdgeStyle;rounded=0;orthogonalLoop=1;jettySize=auto;html=1;" parent="bTGz799TzCsgq-tL2QBZ-2" source="POhj-LKM1kwhmbA6X7bR-1" target="POhj-LKM1kwhmbA6X7bR-2" edge="1">
          <mxGeometry relative="1" as="geometry" />
        </mxCell>
        <mxCell id="POhj-LKM1kwhmbA6X7bR-1" value="Amazon S3" style="sketch=0;outlineConnect=0;fontColor=#232F3E;gradientColor=none;strokeColor=#ffffff;fillColor=#232F3E;dashed=0;verticalLabelPosition=middle;verticalAlign=bottom;align=center;html=1;whiteSpace=wrap;fontSize=10;fontStyle=1;spacing=3;shape=mxgraph.aws4.productIcon;prIcon=mxgraph.aws4.s3;" parent="bTGz799TzCsgq-tL2QBZ-2" vertex="1">
          <mxGeometry x="30" y="380" width="80" height="100" as="geometry" />
        </mxCell>
        <mxCell id="POhj-LKM1kwhmbA6X7bR-8" style="edgeStyle=orthogonalEdgeStyle;rounded=1;orthogonalLoop=1;jettySize=auto;html=1;" parent="bTGz799TzCsgq-tL2QBZ-2" source="POhj-LKM1kwhmbA6X7bR-2" target="POhj-LKM1kwhmbA6X7bR-3" edge="1">
          <mxGeometry relative="1" as="geometry" />
        </mxCell>
        <mxCell id="POhj-LKM1kwhmbA6X7bR-2" value="Amazon SageMaker" style="sketch=0;outlineConnect=0;fontColor=#232F3E;gradientColor=none;strokeColor=#ffffff;fillColor=#232F3E;dashed=0;verticalLabelPosition=middle;verticalAlign=bottom;align=center;html=1;whiteSpace=wrap;fontSize=10;fontStyle=1;spacing=3;shape=mxgraph.aws4.productIcon;prIcon=mxgraph.aws4.sagemaker;" parent="bTGz799TzCsgq-tL2QBZ-2" vertex="1">
          <mxGeometry x="214" y="375" width="80" height="110" as="geometry" />
        </mxCell>
        <mxCell id="POhj-LKM1kwhmbA6X7bR-16" style="edgeStyle=orthogonalEdgeStyle;rounded=0;orthogonalLoop=1;jettySize=auto;html=1;entryX=0;entryY=0.5;entryDx=0;entryDy=0;" parent="bTGz799TzCsgq-tL2QBZ-2" source="POhj-LKM1kwhmbA6X7bR-3" edge="1">
          <mxGeometry relative="1" as="geometry">
            <mxPoint x="590" y="290" as="targetPoint" />
          </mxGeometry>
        </mxCell>
        <mxCell id="POhj-LKM1kwhmbA6X7bR-3" value="Amazon Elasticsearch Service" style="sketch=0;outlineConnect=0;fontColor=#232F3E;gradientColor=none;strokeColor=#ffffff;fillColor=#232F3E;dashed=0;verticalLabelPosition=middle;verticalAlign=bottom;align=center;html=1;whiteSpace=wrap;fontSize=10;fontStyle=1;spacing=3;shape=mxgraph.aws4.productIcon;prIcon=mxgraph.aws4.elasticsearch_service;" parent="bTGz799TzCsgq-tL2QBZ-2" vertex="1">
          <mxGeometry x="380" y="230" width="80" height="120" as="geometry" />
        </mxCell>
        <mxCell id="POhj-LKM1kwhmbA6X7bR-7" style="edgeStyle=orthogonalEdgeStyle;rounded=1;orthogonalLoop=1;jettySize=auto;html=1;" parent="bTGz799TzCsgq-tL2QBZ-2" source="POhj-LKM1kwhmbA6X7bR-4" target="POhj-LKM1kwhmbA6X7bR-2" edge="1">
          <mxGeometry relative="1" as="geometry">
            <Array as="points">
              <mxPoint x="254" y="310" />
            </Array>
          </mxGeometry>
        </mxCell>
        <mxCell id="POhj-LKM1kwhmbA6X7bR-11" style="edgeStyle=orthogonalEdgeStyle;rounded=1;orthogonalLoop=1;jettySize=auto;html=1;" parent="bTGz799TzCsgq-tL2QBZ-2" source="POhj-LKM1kwhmbA6X7bR-4" target="POhj-LKM1kwhmbA6X7bR-10" edge="1">
          <mxGeometry relative="1" as="geometry">
            <Array as="points">
              <mxPoint x="69" y="230" />
              <mxPoint x="254" y="230" />
            </Array>
          </mxGeometry>
        </mxCell>
        <mxCell id="POhj-LKM1kwhmbA6X7bR-4" value="BERT Model" style="sketch=0;outlineConnect=0;fontColor=#232F3E;gradientColor=none;fillColor=#067F68;strokeColor=none;dashed=0;verticalLabelPosition=bottom;verticalAlign=top;align=center;html=1;fontSize=12;fontStyle=0;aspect=fixed;pointerEvents=1;shape=mxgraph.aws4.sagemaker_model;" parent="bTGz799TzCsgq-tL2QBZ-2" vertex="1">
          <mxGeometry x="30" y="240" width="78" height="78" as="geometry" />
        </mxCell>
        <mxCell id="POhj-LKM1kwhmbA6X7bR-9" value="SageMaker Batch Job&amp;nbsp;" style="text;html=1;align=center;verticalAlign=middle;resizable=0;points=[];autosize=1;strokeColor=none;fillColor=none;" parent="bTGz799TzCsgq-tL2QBZ-2" vertex="1">
          <mxGeometry x="200" y="490" width="140" height="20" as="geometry" />
        </mxCell>
        <mxCell id="POhj-LKM1kwhmbA6X7bR-13" style="edgeStyle=orthogonalEdgeStyle;rounded=1;orthogonalLoop=1;jettySize=auto;html=1;entryX=0.133;entryY=0;entryDx=0;entryDy=0;entryPerimeter=0;" parent="bTGz799TzCsgq-tL2QBZ-2" source="POhj-LKM1kwhmbA6X7bR-10" edge="1">
          <mxGeometry relative="1" as="geometry">
            <mxPoint x="610.6400000000001" y="240" as="targetPoint" />
          </mxGeometry>
        </mxCell>
        <mxCell id="POhj-LKM1kwhmbA6X7bR-10" value="Amazon SageMaker" style="sketch=0;outlineConnect=0;fontColor=#232F3E;gradientColor=none;strokeColor=#ffffff;fillColor=#232F3E;dashed=0;verticalLabelPosition=middle;verticalAlign=bottom;align=center;html=1;whiteSpace=wrap;fontSize=10;fontStyle=1;spacing=3;shape=mxgraph.aws4.productIcon;prIcon=mxgraph.aws4.sagemaker;" parent="bTGz799TzCsgq-tL2QBZ-2" vertex="1">
          <mxGeometry x="214" y="90" width="80" height="110" as="geometry" />
        </mxCell>
        <mxCell id="POhj-LKM1kwhmbA6X7bR-12" value="SageMaker Endpoint" style="text;html=1;align=center;verticalAlign=middle;resizable=0;points=[];autosize=1;strokeColor=none;fillColor=none;" parent="bTGz799TzCsgq-tL2QBZ-2" vertex="1">
          <mxGeometry x="205" y="60" width="130" height="20" as="geometry" />
        </mxCell>
        <mxCell id="POhj-LKM1kwhmbA6X7bR-22" style="edgeStyle=orthogonalEdgeStyle;rounded=1;orthogonalLoop=1;jettySize=auto;html=1;" parent="bTGz799TzCsgq-tL2QBZ-2" target="POhj-LKM1kwhmbA6X7bR-10" edge="1">
          <mxGeometry relative="1" as="geometry">
            <Array as="points">
              <mxPoint x="650" y="110" />
            </Array>
            <mxPoint x="650" y="240" as="sourcePoint" />
          </mxGeometry>
        </mxCell>
        <mxCell id="V1oselqunodWBxak1BEi-7" value="Amazon EKS" style="sketch=0;outlineConnect=0;fontColor=#232F3E;gradientColor=none;strokeColor=#ffffff;fillColor=#232F3E;dashed=0;verticalLabelPosition=middle;verticalAlign=bottom;align=center;html=1;whiteSpace=wrap;fontSize=10;fontStyle=1;spacing=3;shape=mxgraph.aws4.productIcon;prIcon=mxgraph.aws4.eks;" vertex="1" parent="bTGz799TzCsgq-tL2QBZ-2">
          <mxGeometry x="600" y="240" width="80" height="100" as="geometry" />
        </mxCell>
        <mxCell id="V1oselqunodWBxak1BEi-8" value="" style="sketch=0;html=1;dashed=0;whitespace=wrap;fillColor=#2875E2;strokeColor=#ffffff;points=[[0.005,0.63,0],[0.1,0.2,0],[0.9,0.2,0],[0.5,0,0],[0.995,0.63,0],[0.72,0.99,0],[0.5,1,0],[0.28,0.99,0]];shape=mxgraph.kubernetes.icon;prIcon=pod" vertex="1" parent="bTGz799TzCsgq-tL2QBZ-2">
          <mxGeometry x="615" y="395" width="50" height="48" as="geometry" />
        </mxCell>
        <mxCell id="V1oselqunodWBxak1BEi-22" style="edgeStyle=orthogonalEdgeStyle;rounded=0;orthogonalLoop=1;jettySize=auto;html=1;" edge="1" parent="bTGz799TzCsgq-tL2QBZ-2" source="V1oselqunodWBxak1BEi-9" target="V1oselqunodWBxak1BEi-17">
          <mxGeometry relative="1" as="geometry" />
        </mxCell>
        <mxCell id="V1oselqunodWBxak1BEi-9" value="" style="shape=image;verticalLabelPosition=bottom;labelBackgroundColor=default;verticalAlign=top;aspect=fixed;imageAspect=0;image=https://fluentbit.io/images/logo.svg;imageBorder=default;" vertex="1" parent="bTGz799TzCsgq-tL2QBZ-2">
          <mxGeometry x="604.67" y="487.5" width="70.65" height="22.5" as="geometry" />
        </mxCell>
        <mxCell id="V1oselqunodWBxak1BEi-11" value="Search App" style="rounded=1;whiteSpace=wrap;html=1;" vertex="1" parent="bTGz799TzCsgq-tL2QBZ-2">
          <mxGeometry x="600" y="456.25" width="80" height="22.5" as="geometry" />
        </mxCell>
        <mxCell id="V1oselqunodWBxak1BEi-15" value="" style="endArrow=none;html=1;rounded=0;exitX=0;exitY=0;exitDx=0;exitDy=0;" edge="1" parent="bTGz799TzCsgq-tL2QBZ-2" source="V1oselqunodWBxak1BEi-10" target="V1oselqunodWBxak1BEi-7">
          <mxGeometry width="50" height="50" relative="1" as="geometry">
            <mxPoint x="580" y="380" as="sourcePoint" />
            <mxPoint x="630" y="330" as="targetPoint" />
          </mxGeometry>
        </mxCell>
        <mxCell id="V1oselqunodWBxak1BEi-16" value="" style="endArrow=none;html=1;rounded=0;exitX=1;exitY=0;exitDx=0;exitDy=0;" edge="1" parent="bTGz799TzCsgq-tL2QBZ-2" source="V1oselqunodWBxak1BEi-10" target="V1oselqunodWBxak1BEi-7">
          <mxGeometry width="50" height="50" relative="1" as="geometry">
            <mxPoint x="590" y="405" as="sourcePoint" />
            <mxPoint x="621.4285714285713" y="350" as="targetPoint" />
          </mxGeometry>
        </mxCell>
        <mxCell id="V1oselqunodWBxak1BEi-17" value="" style="sketch=0;points=[[0,0,0],[0.25,0,0],[0.5,0,0],[0.75,0,0],[1,0,0],[0,1,0],[0.25,1,0],[0.5,1,0],[0.75,1,0],[1,1,0],[0,0.25,0],[0,0.5,0],[0,0.75,0],[1,0.25,0],[1,0.5,0],[1,0.75,0]];outlineConnect=0;fontColor=#232F3E;gradientColor=#945DF2;gradientDirection=north;fillColor=#5A30B5;strokeColor=#ffffff;dashed=0;verticalLabelPosition=bottom;verticalAlign=top;align=center;html=1;fontSize=12;fontStyle=0;aspect=fixed;shape=mxgraph.aws4.resourceIcon;resIcon=mxgraph.aws4.kinesis_data_firehose;" vertex="1" parent="bTGz799TzCsgq-tL2QBZ-2">
          <mxGeometry x="601" y="610" width="78" height="78" as="geometry" />
        </mxCell>
        <mxCell id="V1oselqunodWBxak1BEi-21" value="Semantic Search POD" style="text;html=1;align=center;verticalAlign=middle;resizable=0;points=[];autosize=1;strokeColor=none;fillColor=none;" vertex="1" parent="bTGz799TzCsgq-tL2QBZ-2">
          <mxGeometry x="570" y="545" width="140" height="20" as="geometry" />
        </mxCell>
        <mxCell id="V1oselqunodWBxak1BEi-6" value="" style="aspect=fixed;perimeter=ellipsePerimeter;html=1;align=center;shadow=0;dashed=0;spacingTop=3;image;image=img/lib/active_directory/laptop_client.svg;" vertex="1" parent="1">
          <mxGeometry x="880" y="452.5" width="63" height="70" as="geometry" />
        </mxCell>
        <mxCell id="V1oselqunodWBxak1BEi-18" value="" style="endArrow=classic;startArrow=classic;html=1;rounded=0;" edge="1" parent="1">
          <mxGeometry width="50" height="50" relative="1" as="geometry">
            <mxPoint x="430" y="500" as="sourcePoint" />
            <mxPoint x="480" y="450" as="targetPoint" />
          </mxGeometry>
        </mxCell>
        <mxCell id="V1oselqunodWBxak1BEi-19" style="edgeStyle=orthogonalEdgeStyle;rounded=0;orthogonalLoop=1;jettySize=auto;html=1;exitX=1;exitY=0.5;exitDx=0;exitDy=0;entryX=0;entryY=0.5;entryDx=0;entryDy=0;" edge="1" parent="1" source="V1oselqunodWBxak1BEi-11" target="V1oselqunodWBxak1BEi-6">
          <mxGeometry relative="1" as="geometry" />
        </mxCell>
        <mxCell id="V1oselqunodWBxak1BEi-20" value="Client" style="text;html=1;align=center;verticalAlign=middle;resizable=0;points=[];autosize=1;strokeColor=none;fillColor=none;" vertex="1" parent="1">
          <mxGeometry x="895" y="540" width="50" height="20" as="geometry" />
        </mxCell>
      </root>
    </mxGraphModel>
  </diagram>
</mxfile>
